<svg xmlns="http://www.w3.org/2000/svg" viewBox="0 0 308.1 60.84"><defs><style>.a{fill:black;}</style></defs><path class="a" d="M127.88,375.47a19.39,19.39,0,0,0,10.5-6.12,15.57,15.57,0,0,0,4.12-10.6,15.82,15.82,0,0,0-5.68-12.24,21.44,21.44,0,0,0-27.69,0,15.77,15.77,0,0,0-5.72,12.24,15.47,15.47,0,0,0,4.16,10.6,19.62,19.62,0,0,0,10.53,6.12v11.58H96v5.58H150v-5.58H127.88Zm-11.8-8.4a13.66,13.66,0,0,1,0-16.65,8.64,8.64,0,0,1,13.75,0,13.66,13.66,0,0,1,0,16.65,8.65,8.65,0,0,1-13.75,0Z" transform="translate(-95.95 -340.69)"/><path class="a" d="M199.55,374.67H167.84v5.5h31.71v5.29H168.49V395a6.21,6.21,0,0,0,1.89,4.7,6.88,6.88,0,0,0,5,1.81h34V396H178.27v-5.36h31.06V341.58h-9.78Z" transform="translate(-95.95 -340.69)"/><path class="a" d="M186.3,366.34a13.52,13.52,0,0,0,0-20.63,17.77,17.77,0,0,0-23.27,0,13.45,13.45,0,0,0,0,20.63,17.74,17.74,0,0,0,23.27,0Zm-16.36-3.69a11.94,11.94,0,0,1,0-13.14,5.48,5.48,0,0,1,9.37,0,10.82,10.82,0,0,1,2,6.63,10.63,10.63,0,0,1-2,6.51,5.8,5.8,0,0,1-4.75,2.68A5.66,5.66,0,0,1,169.94,362.65Z" transform="translate(-95.95 -340.69)"/><path class="a" d="M261.45,341.58v17.91h-8.76v5.57h8.76V375.4H232.78V364.9h18V343.54H222.36V349H241v10.43H223v15.06a6.25,6.25,0,0,0,1.81,4.67,6.74,6.74,0,0,0,4.92,1.77h31.71v20.56h9.78V341.58Z" transform="translate(-95.95 -340.69)"/><path d="M307.71,340.69a2.64,2.64,0,0,0-.07.55V346c0,.64,0,1.26.07,1.86H320v5.21h-7.42a16.62,16.62,0,0,1,3.75,3.89,8.71,8.71,0,0,1,1.34,4.91,10.19,10.19,0,0,1-1.17,4.87,11.18,11.18,0,0,1-3.16,3.71,14.64,14.64,0,0,1-4.74,2.51,18.41,18.41,0,0,1-5.63.86,18.85,18.85,0,0,1-5.77-.86,14.54,14.54,0,0,1-4.74-2.51,10.85,10.85,0,0,1-3.23-3.74,10.27,10.27,0,0,1-1.17-4.84,8.5,8.5,0,0,1,1.38-4.91,17.69,17.69,0,0,1,3.71-3.89H285.8v-5.21h12.36v-7.15Zm26.85,43.89v16.14H325v-17H292.73v-5.43H328a6.8,6.8,0,0,1,4.74,1.68A6,6,0,0,1,334.56,384.58ZM303,354.7a5.12,5.12,0,0,0-4,2,7.83,7.83,0,0,0-1.68,5.22A7.33,7.33,0,0,0,299,367a5.26,5.26,0,0,0,4,1.89,5,5,0,0,0,3.88-1.92,7.46,7.46,0,0,0,1.68-5.09,9.48,9.48,0,0,0-.34-2.54,10.58,10.58,0,0,0-1-2.33,7.81,7.81,0,0,0-1.79-1.65A4.34,4.34,0,0,0,303,354.7Zm31.59-2.26c.83,0,1.67.07,2.54.07.69,0,1.44.06,2.27.06h3.3a4.91,4.91,0,0,0,.82-.06,5.5,5.5,0,0,0,.76-.07V358h-9.69v15.66H325v-32h9.61a3.57,3.57,0,0,0-.07.76v7.28C334.49,350.65,334.51,351.57,334.56,352.44Z" transform="translate(-95.95 -340.69)"/><path d="M388.25,373.66H373.42v8.1h-9.69v-8.1H350.68v-5h37.57Zm-18.54-32.21a20,20,0,0,1,5.87.86,16.05,16.05,0,0,1,5,2.43,11.14,11.14,0,0,1,3.47,3.82,10.36,10.36,0,0,1,1.27,5.11,10,10,0,0,1-1.31,5.09,12.47,12.47,0,0,1-3.43,3.84,15.65,15.65,0,0,1-5,2.37,21.43,21.43,0,0,1-5.84.79,20.62,20.62,0,0,1-5.77-.79,14.88,14.88,0,0,1-4.88-2.37,12.54,12.54,0,0,1-3.53-3.84,9.78,9.78,0,0,1-1.34-5.09,10,10,0,0,1,1.47-5.46,12,12,0,0,1,3.82-3.74,16.35,16.35,0,0,1,4.91-2.27A19.85,19.85,0,0,1,369.71,341.45ZM361.4,394.4v-9.82H371v10.85h33v5.43h-36a6.57,6.57,0,0,1-4.74-1.72A6.16,6.16,0,0,1,361.4,394.4Zm8.31-47.73a5.65,5.65,0,0,0-4.77,2,7.94,7.94,0,0,0-1.55,5,7.3,7.3,0,0,0,1.72,4.95,5.75,5.75,0,0,0,4.6,2,5.69,5.69,0,0,0,4.67-2,7.51,7.51,0,0,0,1.65-4.91,8.47,8.47,0,0,0-.38-2.47,7.66,7.66,0,0,0-1.13-2.27,7.23,7.23,0,0,0-2-1.61A5.79,5.79,0,0,0,369.71,346.67Zm22.73,40V384c0-.82,0-1.74-.07-2.75h-13v-4.87h13q.08-9.62.07-17.31V341.72h9.62v45Z" transform="translate(-95.95 -340.69)"/></svg>